<svg width="21" height="16" viewBox="0 0 21 16" fill="none" xmlns="http://www.w3.org/2000/svg">
<path d="M3.15402 15.6998H16.875C18.9643 15.6998 20.029 14.6551 20.029 12.586V3.11384C20.029 1.04464 18.9643 0 16.875 0H3.15402C1.04464 0 0 1.04464 0 3.11384V12.586C0 14.6652 1.04464 15.6998 3.15402 15.6998ZM3.17411 14.0826C2.16964 14.0826 1.61719 13.5502 1.61719 12.5056V3.20424C1.61719 2.1596 2.16964 1.61719 3.17411 1.61719H16.8449C17.8393 1.61719 18.4118 2.1596 18.4118 3.20424V12.5056C18.4118 13.5502 17.8393 14.0826 16.8449 14.0826H3.17411ZM3.18416 15.1674H16.6339C18.3817 15.1674 19.3158 14.2834 19.3158 12.5257V11.8828L14.6551 7.48322C14.2634 7.12168 13.7813 6.94082 13.2991 6.94082C12.7969 6.94082 12.3549 7.10153 11.9431 7.47319L7.88506 11.0692L6.26789 9.6127C5.88612 9.26119 5.47435 9.10047 5.04243 9.10047C4.65063 9.10047 4.27898 9.26119 3.88726 9.59265L0.502234 12.5357C0.502234 14.2834 1.43638 15.1674 3.18416 15.1674Z" fill="#ADACB1"/>
<path d="M7.16181 7.70428C8.32701 7.70428 9.28127 6.72988 9.28127 5.55465C9.28127 4.39956 8.32701 3.42523 7.16181 3.42523C5.98658 3.42523 5.03241 4.39956 5.03241 5.55465C5.03241 6.72988 5.98658 7.70428 7.16181 7.70428Z" fill="#ADACB1"/>
</svg>
