<svg width="24" height="24" viewBox="0 0 24 24" fill="none" xmlns="http://www.w3.org/2000/svg">
<path d="M11.3002 4.89174C11.4308 4.89174 11.5011 4.81138 11.5212 4.69085C11.8226 3.06362 11.7924 2.98326 13.5402 2.67188C13.6607 2.64174 13.741 2.57143 13.741 2.44085C13.741 2.32031 13.6607 2.23995 13.5402 2.21986C11.7924 1.90848 11.8226 1.82812 11.5212 0.200893C11.5011 0.0803571 11.4308 0 11.3002 0C11.1696 0 11.0993 0.0803571 11.0792 0.200893C10.7779 1.82812 10.808 1.90848 9.06026 2.21986C8.92969 2.23995 8.85938 2.32031 8.85938 2.44085C8.85938 2.57143 8.92969 2.64174 9.06026 2.67188C10.808 2.98326 10.7779 3.06362 11.0792 4.69085C11.0993 4.81138 11.1696 4.89174 11.3002 4.89174Z" fill="black"/>
<path d="M6.43862 11.8024C6.62947 11.8024 6.76004 11.6719 6.78014 11.491C7.14174 8.80911 7.23214 8.80911 10.0045 8.27679C10.1752 8.24665 10.3058 8.12612 10.3058 7.93527C10.3058 7.75447 10.1752 7.62388 10.0045 7.60379C7.23214 7.21205 7.13169 7.12165 6.78014 4.39955C6.76004 4.20871 6.62947 4.07812 6.43862 4.07812C6.25781 4.07812 6.12723 4.20871 6.0971 4.4096C5.77567 7.09152 5.625 7.08147 2.87277 7.60379C2.70201 7.63393 2.57143 7.75447 2.57143 7.93527C2.57143 8.13616 2.70201 8.24665 2.91294 8.27679C5.64509 8.71877 5.77567 8.78906 6.0971 11.471C6.12723 11.6719 6.25781 11.8024 6.43862 11.8024Z" fill="black"/>
<path d="M13.2489 22.9119C13.51 22.9119 13.7009 22.721 13.7511 22.4498C14.4643 16.9553 15.2377 16.1116 20.6819 15.509C20.9631 15.4788 21.154 15.2779 21.154 15.0067C21.154 14.7455 20.9631 14.5447 20.6819 14.5145C15.2377 13.9119 14.4643 13.0681 13.7511 7.56362C13.7009 7.29241 13.51 7.11161 13.2489 7.11161C12.9877 7.11161 12.7969 7.29241 12.7567 7.56362C12.0435 13.0681 11.26 13.9119 5.8259 14.5145C5.5346 14.5447 5.34375 14.7455 5.34375 15.0067C5.34375 15.2779 5.5346 15.4788 5.8259 15.509C11.25 16.2221 12.0033 16.9553 12.7567 22.4498C12.7969 22.721 12.9877 22.9119 13.2489 22.9119Z" fill="black"/>
</svg>
