<svg width="25" height="24" viewBox="0 0 25 24" fill="none" xmlns="http://www.w3.org/2000/svg">
<path d="M3.15402 17.4141H16.7645C18.8638 17.4141 19.9185 16.3795 19.9185 14.3002V4.82813C19.9185 2.75894 18.8638 1.71429 16.7645 1.71429H3.15402C1.04464 1.71429 0 2.75894 0 4.82813V14.3002C0 16.3795 1.04464 17.4141 3.15402 17.4141ZM1.61719 14.2198V4.91853C1.61719 3.87389 2.18973 3.33148 3.1741 3.33148H16.7343C17.7288 3.33148 18.3014 3.87389 18.3014 4.91853V14.2198C18.3014 15.2645 17.7388 15.7969 16.7343 15.7969H3.1741C2.16964 15.7969 1.61719 15.2645 1.61719 14.2198Z" fill="#ADACB1"/>
<path d="M8.11607 22.0647H21.8371C23.9264 22.0647 24.991 21.02 24.991 18.9509V9.47877C24.991 7.40957 23.9264 6.36493 21.8371 6.36493H8.11607C6.00669 6.36493 4.96205 7.40957 4.96205 9.47877V18.9509C4.96205 21.0301 6.00669 22.0647 8.11607 22.0647Z" fill="white"/>
<path d="M8.11607 22.0647H21.8371C23.9264 22.0647 24.991 21.02 24.991 18.9509V9.47877C24.991 7.40957 23.9264 6.36493 21.8371 6.36493H8.11607C6.00669 6.36493 4.96205 7.40957 4.96205 9.47877V18.9509C4.96205 21.0301 6.00669 22.0647 8.11607 22.0647ZM8.13616 20.4475C7.13169 20.4475 6.57924 19.9152 6.57924 18.8705V9.56917C6.57924 8.52453 7.13169 7.98212 8.13616 7.98212H21.8069C22.8014 7.98212 23.3739 8.52453 23.3739 9.56917V18.8705C23.3739 19.9152 22.8014 20.4475 21.8069 20.4475H8.13616ZM8.14621 21.5323H21.596C23.3438 21.5323 24.2779 20.6484 24.2779 18.8906V18.2478L19.6172 13.8481C19.2255 13.4866 18.7433 13.3057 18.2612 13.3057C17.759 13.3057 17.3169 13.4665 16.9052 13.8381L12.8471 17.4341L11.2299 15.9776C10.8482 15.6261 10.4364 15.4654 10.0045 15.4654C9.61269 15.4654 9.24103 15.6261 8.84931 15.9576L5.46429 18.9007C5.46429 20.6484 6.39843 21.5323 8.14621 21.5323Z" fill="#ADACB1"/>
<path d="M12.1239 14.0692C13.2891 14.0692 14.2433 13.0948 14.2433 11.9196C14.2433 10.7645 13.2891 9.79016 12.1239 9.79016C10.9486 9.79016 9.99446 10.7645 9.99446 11.9196C9.99446 13.0948 10.9486 14.0692 12.1239 14.0692Z" fill="#ADACB1"/>
</svg>
