<svg width="20" height="20" viewBox="0 0 20 20" fill="none" xmlns="http://www.w3.org/2000/svg">
<g clip-path="url(#clip0_583_52)">
<path d="M1.05554 13.5483C1.05554 13.7072 1.13284 13.8951 1.2523 14.0179L4.35126 17.2832C4.48477 17.4277 4.6464 17.5 4.82208 17.5C4.99073 17.5 5.15235 17.4277 5.28587 17.2832L8.39187 14.0179C8.51132 13.8951 8.5816 13.7072 8.5816 13.5483C8.5816 13.1654 8.3286 12.9126 7.96318 12.9126C7.78047 12.9126 7.63997 12.9704 7.53455 13.086L6.51561 14.1913L5.37722 15.535L5.44749 13.8662V6.96708L5.37722 5.29829L6.51561 6.642L7.53455 7.7473C7.63997 7.86289 7.78047 7.92068 7.96318 7.92068C8.3286 7.92068 8.5816 7.66783 8.5816 7.28495C8.5816 7.12601 8.51132 6.93819 8.39187 6.81538L5.28587 3.55004C5.15235 3.40556 4.99073 3.33331 4.82208 3.33331C4.6464 3.33331 4.48477 3.40556 4.35126 3.55004L1.2523 6.81538C1.13284 6.93819 1.05554 7.12601 1.05554 7.28495C1.05554 7.66783 1.30852 7.92068 1.67393 7.92068C1.85663 7.92068 2.0042 7.85566 2.10258 7.7473L3.12854 6.642L4.25991 5.29829L4.18963 6.96708V13.8662L4.25991 15.535L3.12854 14.1913L2.10258 13.086C2.0042 12.9776 1.85663 12.9126 1.67393 12.9126C1.30852 12.9126 1.05554 13.1654 1.05554 13.5483ZM9.95185 8.50583C9.95185 8.71534 10.1065 8.8815 10.3243 8.9104C13.6341 9.29328 14.119 9.77007 14.5616 13.281C14.5968 13.4978 14.7584 13.6423 14.9482 13.6423C15.1449 13.6423 15.3065 13.4978 15.3417 13.281C15.7844 9.77007 16.2622 9.29328 19.572 8.9104C19.7969 8.8815 19.9444 8.71534 19.9444 8.50583C19.9444 8.29634 19.7969 8.13018 19.572 8.10129C16.2693 7.7184 15.7844 7.23438 15.3417 3.73064C15.3065 3.52114 15.1519 3.37666 14.9482 3.37666C14.7514 3.37666 14.5968 3.52114 14.5616 3.73064C14.0909 7.21271 13.6411 7.64616 10.3243 8.10129C10.1065 8.13018 9.95185 8.29634 9.95185 8.50583ZM9.28432 14.7981C9.28432 14.9426 9.38266 15.0654 9.53725 15.1015C11.3292 15.4483 11.3643 15.4266 11.5681 17.1604C11.5962 17.3266 11.7086 17.4494 11.8632 17.4494C12.0249 17.4494 12.1373 17.3338 12.1654 17.1676C12.3903 15.3544 12.4675 15.3544 14.1822 15.1015C14.3438 15.0727 14.4492 14.9499 14.4492 14.7981C14.4492 14.6536 14.3509 14.5236 14.1892 14.4947C12.4465 14.148 12.3973 14.1913 12.1654 12.4214C12.1373 12.2624 12.0178 12.1468 11.8632 12.1468C11.7086 12.1468 11.5962 12.2696 11.5681 12.4358C11.3643 14.1696 11.3222 14.1985 9.56538 14.4947C9.38968 14.5236 9.28432 14.6392 9.28432 14.7981Z" fill="black"/>
</g>
<defs>
<clipPath id="clip0_583_52">
<rect width="20" height="20" fill="white"/>
</clipPath>
</defs>
</svg>
