<svg width="20" height="16" viewBox="0 0 20 16" fill="none" xmlns="http://www.w3.org/2000/svg">
<path d="M3.15402 15.6998H16.7645C18.8638 15.6998 19.9185 14.6652 19.9185 12.5859V3.11384C19.9185 1.04464 18.8638 0 16.7645 0H3.15402C1.04464 0 0 1.04464 0 3.11384V12.5859C0 14.6652 1.04464 15.6998 3.15402 15.6998ZM1.61719 12.5055V3.20424C1.61719 2.1596 2.18973 1.61719 3.1741 1.61719H16.7343C17.7288 1.61719 18.3014 2.1596 18.3014 3.20424V12.5055C18.3014 13.5502 17.7388 14.0826 16.7343 14.0826H3.1741C2.16964 14.0826 1.61719 13.5502 1.61719 12.5055Z" fill="#ADACB1"/>
</svg>
