<svg width="24" height="24" viewBox="0 0 24 24" fill="none" xmlns="http://www.w3.org/2000/svg">
<path d="M3.42859 12.7366C3.42859 17.6685 7.38618 21.6261 12.3081 21.6261C17.23 21.6261 21.1774 17.6685 21.1774 12.7366C21.1774 7.81473 17.23 3.86719 12.3081 3.86719C11.6853 3.86719 11.0927 3.9375 10.5703 4.03795L13.2422 1.39621C13.3929 1.23549 13.4632 1.0346 13.4632 0.823661C13.4632 0.361607 13.1217 0 12.6797 0C12.4286 0 12.2277 0.0803571 12.0871 0.241071L7.94868 4.43973C7.78797 4.60045 7.69756 4.82143 7.69756 5.04241C7.69756 5.27343 7.77792 5.47433 7.94868 5.64509L12.0871 9.80357C12.2377 9.95426 12.4286 10.0346 12.6696 10.0346C13.1217 10.0346 13.4632 9.69309 13.4632 9.231C13.4632 9.02006 13.3929 8.81923 13.2322 8.65851L10.2389 5.68527C10.8214 5.54464 11.5346 5.48438 12.3081 5.48438C16.336 5.48438 19.5603 8.70874 19.5603 12.7366C19.5603 16.7745 16.336 20.009 12.3081 20.009C8.28015 20.009 5.04578 16.7745 5.04578 12.7366C5.04578 12.2545 4.74444 11.9029 4.26229 11.9029C3.77011 11.9029 3.42859 12.2545 3.42859 12.7366Z" fill="white"/>
</svg>
